{"title":"The Majestic 2001 DVD9rip English Klam","uid":6021036,"size":2419565610,"categoryP":"video","categoryS":"movies","magnet":"?xt=urn:btih:03f6e4029485991812e301dde97ee52e2f109151&amp;dn=The+Majestic+2001+DVD9rip+English+Klam&amp;tr=udp%3A%2F%2Ftracker.openbittorrent.com%3A80&amp;tr=udp%3A%2F%2Fopen.demonii.com%3A1337&amp;tr=udp%3A%2F%2Ftracker.coppersurfer.tk%3A6969&amp;tr=udp%3A%2F%2Fexodus.desync.com%3A6969","seeders":1,"leechers":0,"uploader":"Klambake","files":-1,"time":1291798754,"description":"With: Jim Carrey, Martin Landau and Laurie Holden\n\nPeter Appleton is an ambitious young screenwriter working for HHS Studios during Hollywood's Golden Age, 1951 in particular. &quot;Ashes to Ashes&quot; is about to be released, and he's dating the attractive movie star, Sandra Sinclair. Just when everything seems to be going his way, it is discovered he (unwittingly) attended a Communist meeting during college when pulled there by his girlfriend at the time, and thus heavy suspicion settles over him and he'll have to stand before Congress. Afraid of what might happen if they don't, HHS cancels Appleton's contract and aborts the release date of the film. Appleton promptly begins to wallow in self-pity and spends nearly an entire night at a bar, then drives intoxicated through the streets of the California course until plummeting into a stormy river and getting knocked unconscious. Washing up on the beaches of a small town called Lawson. Although the people there are pleasant and likeable...\n\nGeneral:\n\nComplete name                    : The\\Majestic.avi\nFormat                           : AVI\nFormat/Info                      : Audio Video Interleave\nFile size                        : 2.25 GiB\nDuration                         : 2h 26mn\nOverall bit rate                 : 2 202 Kbps\n\nVideo:\n\nFormat                           : MPEG-4 Visual\nFormat profile                   : Simple@L3\nFormat settings, BVOP            : No\nFormat settings, QPel            : No\nFormat settings, GMC             : No warppoints\nFormat settings, Matrix          : Default (H.263)\nCodec ID                         : XVID\nCodec ID/Hint                    : XviD\nDuration                         : 2h 26mn\nBit rate                         : 1 807 Kbps\nWidth                            : 720 pixels\nHeight                           : 576 pixels\nDisplay aspect ratio             : 5:4\nFrame rate                       : 25.000 fps\nStandard                         : PAL\nColor space                      : YUV\nChroma subsampling               : 4:2:0\nBit depth                        : 8 bits\nScan type                        : Progressive\nBits/(Pixel*Frame)               : 0.174\nStream size                      : 1.85 GiB (82%)\nWriting library                  : XviD 1.1.2 (UTC 2006-11-01)\n\nAudio:\n\nFormat                           : AC-3\nFormat/Info                      : Audio Coding 3\nMode extension                   : CM (complete main)\nCodec ID                         : 2000\nDuration                         : 2h 26mn\nBit rate mode                    : Constant\nBit rate                         : 384 Kbps\nChannel(s)                       : 6 channels\nChannel positions                : Front: L C R, Side: L R, LFE\nSampling rate                    : 48.0 KHz\nBit depth                        : 16 bits\nStream size                      : 402 MiB (17%)\nAlignment                        : Aligned on interleaves\nInterleave, duration             : 32 ms (0.80 video frame)\nInterleave, preload duration     : 160 ms\n","torrent":{"xt":"urn:btih:03f6e4029485991812e301dde97ee52e2f109151","amp;dn":"The+Majestic+2001+DVD9rip+English+Klam","amp;tr":["udp%3A%2F%2Ftracker.openbittorrent.com%3A80","udp%3A%2F%2Fopen.demonii.com%3A1337","udp%3A%2F%2Ftracker.coppersurfer.tk%3A6969","udp%3A%2F%2Fexodus.desync.com%3A6969"],"infoHash":"03f6e4029485991812e301dde97ee52e2f109151","infoHashBuffer":{"type":"Buffer","data":[3,246,228,2,148,133,153,24,18,227,1,221,233,126,229,46,47,16,145,81]},"announce":[],"urlList":[]}}